<svg xmlns="http://www.w3.org/2000/svg" xmlns:xlink="http://www.w3.org/1999/xlink" width="260" zoomAndPan="magnify" viewBox="0 0 194.87999 374.999991" height="500" preserveAspectRatio="xMidYMid meet" version="1.0"><defs><clipPath id="4bdcde04ef"><path d="M 2 0.117188 L 192 0.117188 L 192 374.882812 L 2 374.882812 Z M 2 0.117188 " clip-rule="nonzero"/></clipPath></defs><g clip-path="url(#4bdcde04ef)"><path fill="#ffffff" d="M 184.707031 121.789062 C 175.554688 92.40625 156.800781 65.679688 131.699219 46.332031 C 118.113281 35.851562 103.347656 28.320312 87.84375 23.890625 C 75.585938 20.34375 62.589844 18.574219 49.300781 18.574219 C 48.121094 18.574219 46.9375 18.574219 45.757812 18.722656 L 45.757812 11.042969 C 45.757812 4.988281 40.886719 0.117188 34.683594 0.117188 C 28.480469 0.117188 23.609375 4.988281 23.609375 11.042969 L 23.609375 287.46875 C 23.164062 287.761719 22.722656 287.910156 22.132812 288.058594 C 16.667969 290.714844 5.296875 296.179688 2.640625 307.84375 C 0.128906 318.773438 6.628906 329.550781 19.324219 335.015625 C 20.804688 335.605469 22.132812 336.195312 23.609375 336.640625 L 23.609375 363.957031 C 23.609375 370.160156 28.480469 374.882812 34.683594 374.882812 C 40.886719 374.882812 45.757812 370.011719 45.757812 363.957031 L 45.757812 339.886719 C 45.90625 339.886719 46.054688 339.886719 46.347656 339.886719 C 54.027344 339.003906 61.707031 336.050781 69.234375 331.324219 C 76.175781 326.894531 82.527344 321.28125 87.695312 316.410156 C 93.453125 311.09375 96.554688 306.074219 97.882812 301.644531 C 103.9375 299.429688 109.695312 296.917969 115.308594 294.113281 C 129.925781 286.730469 142.625 276.835938 153.109375 264.875 C 163.886719 252.621094 172.601562 238.445312 179.097656 222.792969 C 192.832031 190.011719 194.75 154.128906 184.707031 121.789062 Z M 184.707031 121.789062 " fill-opacity="1" fill-rule="nonzero"/></g><path fill="#bde1ed" d="M 36.898438 11.042969 L 36.898438 363.957031 C 36.898438 366.761719 32.46875 366.761719 32.46875 363.957031 L 32.46875 11.042969 C 32.46875 8.238281 36.898438 8.238281 36.898438 11.042969 Z M 36.898438 11.042969 " fill-opacity="1" fill-rule="nonzero"/><path fill="#ffffff" d="M 169.941406 207.582031 C 160.640625 235.492188 142.773438 261.332031 117.523438 276.835938 C 93.601562 291.601562 64.953125 297.953125 36.898438 297.507812 L 36.898438 32.898438 C 48.859375 31.863281 61.113281 32.160156 72.929688 34.519531 C 88.433594 37.472656 102.902344 43.527344 116.046875 52.242188 C 139.375 67.746094 157.980469 90.632812 168.316406 116.769531 C 179.6875 145.859375 179.835938 177.902344 169.941406 207.582031 Z M 169.941406 207.582031 " fill-opacity="1" fill-rule="nonzero"/><path fill="#bde1ed" d="M 170.976562 219.394531 C 164.921875 233.867188 156.800781 247.304688 146.464844 259.117188 C 136.570312 270.339844 124.609375 279.496094 111.320312 286.285156 C 88.582031 297.953125 62.589844 303.121094 37.046875 302.675781 L 36.898438 302.675781 C 36.601562 301.054688 36.457031 299.28125 36.160156 297.65625 C 36.457031 297.65625 36.75 297.65625 37.046875 297.65625 C 65.101562 298.101562 93.75 291.75 117.667969 276.984375 C 142.921875 261.480469 160.789062 235.636719 170.089844 207.730469 C 179.984375 178.050781 179.835938 146.007812 168.316406 116.769531 C 158.128906 90.78125 139.375 67.894531 116.046875 52.242188 C 102.902344 43.527344 88.433594 37.472656 72.929688 34.519531 C 61.113281 32.304688 49.007812 31.863281 36.898438 32.898438 C 35.714844 33.042969 34.535156 33.191406 33.355469 33.191406 C 33.5 31.566406 33.5 29.796875 33.355469 28.171875 C 33.796875 28.171875 34.238281 28.023438 34.683594 28.023438 C 35.421875 28.023438 36.160156 27.875 36.898438 27.875 C 53.140625 26.398438 69.679688 27.726562 85.332031 32.304688 C 100.246094 36.589844 113.976562 43.972656 126.234375 53.421875 C 149.566406 71.289062 167.433594 96.242188 176.144531 124.449219 C 186.039062 155.605469 183.378906 189.417969 170.976562 219.394531 Z M 170.976562 219.394531 " fill-opacity="1" fill-rule="nonzero"/><path fill="#bde1ed" d="M 71.007812 153.390625 C 71.007812 153.390625 71.007812 153.242188 71.007812 153.242188 C 70.566406 151.617188 70.269531 151.46875 69.53125 150.289062 C 69.089844 149.699219 68.644531 149.109375 68.054688 148.8125 C 67.464844 148.222656 66.875 147.925781 66.136719 147.777344 C 65.691406 147.632812 65.398438 147.484375 64.953125 147.335938 C 64.511719 147.1875 64.511719 147.335938 63.773438 147.1875 C 63.035156 147.039062 62.148438 147.039062 61.410156 147.1875 C 60.230469 147.1875 59.195312 147.632812 58.160156 148.222656 C 57.570312 148.664062 56.980469 149.109375 56.390625 149.550781 C 55.945312 150.140625 55.503906 150.730469 55.0625 151.324219 C 54.765625 152.0625 54.46875 152.800781 54.175781 153.390625 C 54.027344 154.128906 54.027344 155.015625 53.878906 155.753906 C 54.027344 156.492188 54.027344 157.375 54.175781 158.113281 C 54.46875 158.851562 54.765625 159.589844 55.0625 160.183594 C 55.503906 160.773438 55.945312 161.363281 56.390625 161.953125 C 56.980469 162.398438 57.570312 162.839844 58.160156 163.285156 C 58.898438 163.578125 59.636719 163.875 60.230469 164.167969 C 60.96875 164.316406 61.851562 164.316406 62.589844 164.464844 C 63.773438 164.464844 64.953125 164.316406 65.988281 163.726562 C 66.726562 163.578125 67.316406 163.136719 67.90625 162.542969 C 68.644531 162.101562 69.089844 161.660156 69.53125 160.921875 C 70.121094 160.328125 70.417969 159.738281 70.714844 159 C 71.15625 158.261719 71.304688 157.523438 71.304688 156.785156 C 71.453125 155.753906 71.304688 154.570312 71.007812 153.390625 Z M 71.007812 153.390625 " fill-opacity="1" fill-rule="nonzero"/><path fill="#bde1ed" d="M 140.410156 153.390625 C 140.410156 153.390625 140.410156 153.242188 140.410156 153.242188 C 139.96875 151.617188 139.671875 151.46875 138.933594 150.289062 C 138.492188 149.699219 138.046875 149.109375 137.457031 148.8125 C 136.867188 148.222656 136.277344 147.925781 135.535156 147.777344 C 135.09375 147.632812 134.796875 147.484375 134.355469 147.335938 C 133.914062 147.1875 133.914062 147.335938 133.175781 147.1875 C 132.4375 147.039062 131.550781 147.039062 130.8125 147.1875 C 129.628906 147.1875 128.597656 147.632812 127.5625 148.222656 C 126.972656 148.664062 126.382812 149.109375 125.792969 149.550781 C 125.347656 150.140625 124.90625 150.730469 124.460938 151.324219 C 124.167969 152.0625 123.871094 152.800781 123.578125 153.390625 C 123.429688 154.128906 123.429688 155.015625 123.28125 155.753906 C 123.429688 156.492188 123.429688 157.375 123.578125 158.113281 C 123.871094 158.851562 124.167969 159.589844 124.460938 160.183594 C 124.90625 160.773438 125.347656 161.363281 125.792969 161.953125 C 126.382812 162.398438 126.972656 162.839844 127.5625 163.285156 C 128.300781 163.578125 129.039062 163.875 129.628906 164.167969 C 130.367188 164.316406 131.253906 164.316406 131.992188 164.464844 C 133.175781 164.464844 134.355469 164.316406 135.390625 163.726562 C 136.128906 163.578125 136.71875 163.136719 137.308594 162.542969 C 138.046875 162.101562 138.492188 161.660156 138.933594 160.921875 C 139.523438 160.328125 139.820312 159.738281 140.113281 159 C 140.558594 158.261719 140.707031 157.523438 140.707031 156.785156 C 140.851562 155.753906 140.851562 154.570312 140.410156 153.390625 Z M 140.410156 153.390625 " fill-opacity="1" fill-rule="nonzero"/><path fill="#ffffff" d="M 83.265625 301.792969 C 81.34375 304.597656 78.539062 306.960938 75.882812 309.175781 C 73.371094 311.390625 70.859375 313.605469 68.351562 315.671875 C 58.605469 323.351562 46.9375 328.960938 34.238281 326.15625 C 30.402344 325.269531 26.414062 323.941406 22.722656 322.019531 C 19.621094 320.398438 16.371094 317.886719 15.632812 314.195312 C 14.011719 306.960938 23.019531 302.675781 28.332031 300.167969 C 36.75 296.179688 45.460938 292.636719 54.324219 290.273438 C 59.046875 288.945312 64.066406 287.910156 69.089844 287.617188 C 72.929688 287.46875 77.210938 287.617188 80.753906 289.535156 C 82.230469 290.273438 83.558594 291.453125 84.445312 292.929688 C 86.21875 295.589844 85.035156 299.132812 83.265625 301.792969 Z M 83.265625 301.792969 " fill-opacity="1" fill-rule="nonzero"/><path fill="#bde1ed" d="M 87.988281 290.125 C 82.230469 281.414062 69.679688 282.449219 60.671875 284.070312 C 48.710938 286.285156 36.898438 290.863281 25.972656 296.179688 C 20.066406 298.984375 12.828125 302.972656 11.351562 309.914062 C 9.582031 318.035156 16.226562 324.089844 22.871094 326.894531 C 29.957031 329.996094 37.488281 332.0625 45.316406 331.175781 C 52.253906 330.4375 58.605469 327.632812 64.363281 323.941406 C 70.566406 319.953125 76.175781 314.933594 81.640625 310.058594 C 86.957031 305.039062 92.863281 297.363281 87.988281 290.125 Z M 83.265625 301.792969 C 81.34375 304.597656 78.539062 306.960938 75.882812 309.175781 C 73.371094 311.390625 70.859375 313.605469 68.351562 315.671875 C 58.605469 323.351562 46.9375 328.960938 34.238281 326.15625 C 30.402344 325.269531 26.414062 323.941406 22.722656 322.019531 C 19.621094 320.398438 16.371094 317.886719 15.632812 314.195312 C 14.011719 306.960938 23.019531 302.675781 28.332031 300.167969 C 36.75 296.179688 45.460938 292.636719 54.324219 290.273438 C 59.046875 288.945312 64.066406 287.910156 69.089844 287.617188 C 72.929688 287.46875 77.210938 287.617188 80.753906 289.535156 C 82.230469 290.273438 83.558594 291.453125 84.445312 292.929688 C 86.21875 295.589844 85.035156 299.132812 83.265625 301.792969 Z M 83.265625 301.792969 " fill-opacity="1" fill-rule="nonzero"/><path fill="#bde1ed" d="M 89.320312 200.199219 C 95.964844 200.199219 102.460938 200.199219 109.105469 200.199219 C 111.910156 200.199219 111.910156 195.769531 109.105469 195.769531 C 102.460938 195.769531 95.964844 195.769531 89.320312 195.769531 C 86.367188 195.769531 86.367188 200.199219 89.320312 200.199219 Z M 89.320312 200.199219 " fill-opacity="1" fill-rule="nonzero"/><path stroke-linecap="butt" transform="matrix(0, -0.749538, 0.749538, 0, 33.406776, 187.495303)" fill="none" stroke-linejoin="miter" d="M -0.00105448 2.00053 L 83.201196 2.00053 " stroke="#bde1ed" stroke-width="4" stroke-opacity="1" stroke-miterlimit="4"/></svg>